<svg width="24" height="24" viewBox="0 0 24 24" fill="none" xmlns="http://www.w3.org/2000/svg">
<path d="M19.3207 24C19.1332 24 18.947 23.938 18.7873 23.8169L12.7527 19.2406L9.51613 21.8443C9.39106 21.9448 9.24599 22.0099 9.09344 22.0338C8.94088 22.0578 8.7854 22.0399 8.6404 21.9817C8.4954 21.9235 8.36522 21.8268 8.26108 21.6999C8.15694 21.573 8.08196 21.4197 8.0426 21.2532L6.41746 14.3678L0.610646 11.8855C0.432018 11.8091 0.278171 11.6742 0.169226 11.4985C0.0602802 11.3228 0.00130789 11.1144 2.15027e-05 10.9006C-0.00126489 10.6867 0.0551946 10.4775 0.162016 10.3001C0.268837 10.1228 0.421047 9.98558 0.598739 9.90651L22.6784 0.0844058C22.8378 0.00877039 23.0127 -0.0167134 23.1842 0.0107082C23.3557 0.0381297 23.5172 0.117414 23.6512 0.239993C23.7853 0.362573 23.8869 0.523786 23.945 0.706213C24.0031 0.88864 24.0154 1.08534 23.9808 1.27507L20.2539 23.1367C20.2125 23.3796 20.0967 23.5986 19.9263 23.7562C19.756 23.9138 19.5418 24 19.3207 24ZM13.2826 17.0757L18.658 21.1519L21.5579 4.14112L11.0841 15.4085L13.2572 17.0566C13.266 17.0626 13.2743 17.0692 13.2826 17.0757ZM8.8078 16.1692L9.52753 19.2181L11.0782 17.9707L9.04771 16.4308C8.95447 16.3602 8.87323 16.2717 8.8078 16.1692ZM3.5639 10.8736L7.55113 12.5778C7.69193 12.638 7.8179 12.7348 7.91862 12.8602C8.01934 12.9856 8.09193 13.136 8.13038 13.2989L8.63604 15.4414C8.6594 15.1922 8.76074 14.9603 8.92218 14.7865L18.9022 4.05049L3.5639 10.8736Z" fill="white"/>
</svg>
